<svg xmlns="http://www.w3.org/2000/svg" viewBox="0 0 1929.66 306.97"><defs><style>.cls-1,.cls-2,.cls-3{fill:none;}.cls-1{stroke:#fbb03b;}.cls-1,.cls-2{stroke-linecap:round;stroke-linejoin:round;stroke-width:3px;}.cls-2{stroke:#f7931e;}.cls-3{stroke:#603813;stroke-miterlimit:10;stroke-width:8px;}.cls-4{fill:#42210b;}</style></defs><g id="main"><polyline id="bg" class="cls-1" points="2.39 5.83 6.57 3.42 3.16 7.91 8.77 4.68 7.42 8.96 19.98 1.7 2.82 14.99 21.38 4.27 3.17 17.92 29.75 2.58 4.17 20.36 36.54 1.68 7.72 21.89 36.17 5.47 5.72 25.9 45.45 2.96 5.24 29.68 50.05 3.81 6.5 31.35 51.38 5.44 2.15 37.94 60.63 4.18 6.93 39.58 66.14 5.39 6.96 42.65 75.07 3.33 3.11 48.15 78.06 4.87 6.34 48.66 87.46 1.82 3.19 54.52 92.93 2.71 2.69 58.81 98.12 3.72 8.13 59.13 102.31 4.75 5.19 65.38 113.62 2.78 4.39 70.04 119.36 3.66 3.15 74.98 127.44 3.22 5.43 76.75 131.84 3.77 2.4 82.41 142.45 1.55 4.7 84.75 144.81 3.85 5.01 89.03 155.33 2.25 6.57 91.73 156.83 4.98 3.16 98.2 165.93 4.22 4.1 100.56 171.09 4.14 1.5 105.44 181.09 1.75 5.95 105.87 182.93 3.69 6.48 108.37 188.21 3.45 5.34 111.79 194.88 2.35 5 116.2 202.45 2.2 5.94 118.43 204.1 4.03 3.92 122.1 211.05 2.51 4.63 124.07 211.87 4.42 7.2 126.14 222.85 1.64 3.72 131.34 222.24 5.18 5.64 133.09 232.58 2.07 4.88 135.94 235 3.08 7.06 138.42 244.18 1.52 1.78 145.98 246.69 4.58 7.46 146.58 252.22 5.26 7.59 149.27 262.25 2.24 4.48 154.62 267.07 3.01 3.06 158.04 271.56 3.02 3.06 161.08 277.25 2.79 5.15 163.5 282.84 3.18 6.82 166.54 291.43 2.22 4.19 171.34 295.92 2.91 3.44 175.47 304.73 1.52 5.88 177.43 308.62 2.64 1.6 182.26 311.84 3.14 3.29 183.6 313.05 4.76 8.34 183.75 322.45 2.4 2.94 191.44 329.32 3 4.66 194.78 333.62 4.86 8.02 196.78 340.05 5.08 2.71 202.93 348.84 3.1 2.17 206.46 351.78 4.62 5.83 208.75 364.58 1.62 4.93 213.31 366.23 4.71 6.1 215.34 373.54 3.19 6.46 219.65 379.17 4.46 4.35 224.35 385.16 4.49 7.37 226.51 394.87 2.79 5.42 230.91 399.5 3.39 2.36 236.39 406.21 3.23 4.41 237.72 410.81 3.09 4.64 241.33 413.13 5.49 6.91 244.39 422.38 4.51 5.76 247.85 426.5 4.94 4.06 252.71 434.62 4.13 5.63 254.56 438.61 4.57 3.06 258.88 448.45 1.73 4.67 261.93 452.68 3.27 6.98 264.05 454.97 5.39 6.62 267.58 464.9 2.99 7.27 269.96 468.16 3.86 8.18 273.92 478 2.67 7.18 277.29 484.57 1.67 7.38 281.78 490.98 2.58 7.27 284.57 491.19 5.18 5.17 288.71 497.63 4.39 4.05 292.69 501.74 5.35 1.94 297.68 512.4 2.96 4.12 299.33 516.58 3.46 7.07 300.22 524.26 1.63 6.32 303.67 528.21 2.36 14.9 302.84 534.47 2.87 15.43 305.42 537.71 3.88 25.5 302.87 547.06 1.75 33.08 301.82 552.57 1.9 35.28 302.89 551.33 4.95 35.12 305.39 560.03 2.33 42.09 305.36 564.18 3.93 50.94 303.69 568.69 4.77 55.63 305.38 579.11 3.14 64.72 304.55 585.5 3.88 73.29 303.36 595.03 2.14 75.13 305.34 595.62 4.83 87.73 301.64 606.93 1.87 89.99 304.54 614.2 1.88 99.61 303.07 621.57 1.72 108.2 302.63 625.08 4.22 113.49 301.93 632.93 2.04 117.38 303.07 632.85 5.46 119.45 304.54 640.62 3.64 130.74 302.01 645.21 4.98 138.81 301.84 656.37 3.02 138.21 305.03 657.91 4.97 143.81 304.71 663.68 4.56 153.84 301.83 673.63 1.73 157.16 303.78 676.64 3.86 164.53 303.35 684.8 2.97 169.77 303.57 690.76 2.78 174.54 303.31 696.53 1.95 177.52 304.15 696.42 4.56 188.25 301.67 702.95 4.5 186.85 304.83 710.82 2.32 194.31 303.77 716.1 2.52 203.52 302.33 722.16 2.89 206.99 304.43 730.58 2.13 212.02 304.34 730.29 5.12 221.15 303.18 737.16 5.26 229.38 301.93 746.18 3.56 235.23 302.55 749.75 5.49 241.94 301.84 758.57 3.56 241.94 304.83 763.18 3.89 247.54 304.83 770.14 3.1 252.63 304.35 774.78 2.88 259.01 305.24 781.74 3.44 266.97 305 786.33 5.14 274.15 304.11 794.87 3.47 282.67 303.67 800.62 4.63 290.69 302.95 805.97 5.45 294.29 304.51 813.52 4.73 301.98 304.53 819.97 5.47 310.58 303.08 829.09 3.72 312.92 305.47 836.16 3.38 318.09 305.07 838.44 4.64 326.47 304.68 848.6 3.22 334.07 304.03 854.74 3.42 341.99 303.79 862.78 3.11 350.44 303.17 867.82 4.46 351.12 305.37 875.32 2.72 361.54 301.82 878.23 3.51 367.5 301.85 882.44 4.55 367.79 304.61 886.06 5.39 375.52 302.55 896.67 1.66 375.11 305.24 899.16 2.67 386.52 302.44 905.92 2.56 388.2 304.28 909.21 3.47 392.66 305.11 918.38 1.59 401.01 302.85 917.25 4.8 403.62 304.08 921.31 5.19 414.63 302.26 933.34 2.78 417.29 304.01 941.09 1.59 424.78 303.63 946.08 2.65 431.08 303.96 948.78 5.07 434.26 305.1 953.91 5.08 442.2 305.04 962.61 4.58 453.38 301.95 971.72 2.69 452.92 304.61 976.48 2.33 462.87 303.02 983.07 2.68 466.48 303.65 983.22 5.3 474.85 302.86 991.43 4.61 481.53 303.45 1001.85 3.05 486.51 304.01 1007.87 3 496.28 302.14 1013.96 3.26 497.5 305.22 1020.74 3.13 508.56 302.82 1027.23 3.38 514.47 303.75 1034.31 3.62 520.12 303.75 1043.5 1.58 525.91 303.04 1047.53 1.89 529.37 303.59 1049.21 3.46 535.42 304.13 1058.24 2.27 540.96 303.76 1061.88 3.01 549.47 302.43 1068.52 2.75 553.43 303.96 1070.7 5.31 561.49 303.2 1078.81 4.53 566.62 304.27 1086.34 4.2 577.7 302.34 1093.58 4.5 584.74 302.71 1104.35 2.71 593.01 301.65 1112.47 1.74 593.6 304.77 1115.81 3.28 599.52 304.89 1123.79 2.2 605.09 304.31 1122.99 5.3 610.43 304.42 1134.43 1.88 619.03 303.17 1140.7 1.98 623.39 303.07 1139.35 5.18 625.9 305.28 1145.98 5.01 637.46 302.51 1158.02 1.96 642.47 303.26 1158.45 5.36 648.56 303.83 1166.21 4.96 656.31 303.08 1176.33 2.85 664.2 301.79 1179.17 4.47 667.42 303.43 1185.6 4.26 674.73 302.32 1193.17 3 679.13 303.04 1196.56 4.3 683.99 303.65 1205.21 2.73 689.93 302.67 1207.85 3.65 690.04 305.24 1215.79 1.7 697.29 304.64 1215.57 5.41 703.82 304.5 1228.54 1.55 711.97 302.42 1232.39 1.95 715.47 303.07 1232.75 4.42 721.44 302.47 1242.54 1.61 727.31 302.76 1248.31 1.96 728.67 304.52 1248.42 4.44 732.75 305.22 1254.38 4.06 741.69 303.36 1264.39 1.57 745.08 304.53 1264.62 4.57 751.35 303.82 1270.63 4.01 759.38 301.77 1278.83 1.86 764.49 302.89 1285.66 1.99 766.95 304.48 1287.07 4.19 773.77 303.54 1292.34 4.15 782.3 301.86 1298.16 4.03 786.18 302.87 1307.88 1.67 789.31 305.13 1313.69 2.38 797.82 304.07 1321.88 1.51 802.82 304.47 1327.03 1.82 808.92 304.97 1332.21 2.85 818.21 303.17 1338.98 2.5 820.33 305.35 1343.86 3.09 830.49 303.58 1351.57 2.74 837.48 301.91 1357.06 1.94 843.3 301.82 1362.74 1.92 844.66 305.29 1368.05 3.1 853.54 303.45 1374.96 2.4 860.5 301.79 1379.96 1.88 864.78 302.11 1384.61 1.98 869.26 302.64 1388.65 2.77 876.11 302.02 1390.91 4.8 881.72 302.57 1398.64 4.13 883.9 303.84 1405.99 2.42 892.19 302.64 1412.81 2.06 899.39 302.27 1415.25 4.44 901.8 304.41 1421.34 4.46 907.81 305.26 1428.41 4.69 918.04 301.82 1436.29 2.61 918.76 305.36 1443.93 2.15 926.64 305.1 1450.43 2.69 934.78 304.18 1456.24 3.11 943.39 302.34 1462.21 2.8 942.39 305.46 1464.45 4.04 952.76 301.89 1471.31 2.5 960.9 301.5 1476 4.11 962.61 304.25 1482.19 4.26 967.5 304.2 1488.6 3.35 972.74 305.24 1495.59 3.38 983.04 302.02 1498.43 4.46 990.73 302.02 1508.88 2.87 990.72 304.54 1513.56 2.68 999.65 303.82 1517.42 4.88 1004.07 305.33 1524.15 5.06 1014.51 301.81 1531.52 3.32 1019.65 301.93 1534.96 4.42 1023.7 301.99 1537.42 5.39 1031.46 301.75 1549.27 2.8 1036.68 301.67 1554.88 2.48 1036.46 304.72 1559.44 2.77 1041.75 305.41 1565 3.32 1052 302.14 1566.3 5.22 1057.68 303.2 1574.84 4.62 1064.79 301.57 1578.12 5.2 1068.75 303.9 1589.82 3.06 1074.6 304.45 1597.44 2.59 1080.94 305.04 1606.61 1.54 1087.45 303.92 1605.6 4.76 1093.84 303.03 1615.69 1.75 1103.33 301.93 1622.8 2.01 1109.1 302.48 1624.35 4.99 1108.99 305.13 1632.09 3.13 1120.42 301.88 1638.25 2.91 1121.98 303.84 1644.58 2.12 1128.43 303.6 1647.1 4.15 1134.77 304.46 1659.19 1.69 1141.65 304.22 1659.52 5.22 1153.11 301.54 1666.53 5.12 1157.42 302.35 1674.94 3.56 1164.89 301.49 1679.13 4.6 1165.41 304.51 1685.26 4.38 1172.6 302.81 1688.98 4.67 1178 302.93 1698.2 2.59 1181.82 305.12 1704.66 3.25 1190.66 304.26 1710.16 4.33 1196.5 303.37 1717.85 2.37 1200.1 303.77 1720.29 3.44 1207.56 302.74 1728.79 1.8 1213.25 303.81 1732.7 3.91 1220.04 302.36 1738.09 3.26 1224.33 303.64 1741.76 4.91 1234.61 301.75 1747.82 5.44 1232.76 305.24 1756.18 3.04 1243.72 302.67 1762.33 3.25 1249.55 302.12 1764.06 5.06 1251.03 305.02 1774.13 3.01 1258.05 303.54 1779.3 2.6 1266.69 303.13 1786.83 2.83 1271.27 304.84 1796.03 1.87 1279.29 304.41 1803.84 1.55 1290.14 301.56 1808.8 2.11 1294.62 303.22 1813.15 3.84 1303.63 301.92 1821.49 2.93 1307.85 301.96 1823.14 4.46 1312.44 302.02 1826.28 5.36 1314.98 303.36 1833.6 3.93 1325.03 301.97 1845.46 1.5 1328.8 302.95 1848.66 2.81 1332.07 304.02 1855.17 2.01 1340.6 301.56 1853.86 5.23 1347.67 301.95 1867.46 1.85 1354.58 302.42 1872.15 3.61 1354.05 305.41 1876.93 3.52 1358.78 305.36 1880.81 3.96 1369.71 303.33 1889.71 3.1 1371.81 305.15 1892.71 4.4 1381.4 302.35 1895.98 5.25 1383.22 303.79 1906.74 1.54 1389.84 302.96 1906.37 4.74 1390.65 304.96 1915.32 2.04 1398.33 303.5 1915.3 5.03 1407.34 302.52 1924.22 4.1 1409.14 304.92 1926.08 6.46 1417.35 303.28 1922.02 11.9 1423.54 302.22 1926.86 11.63 1430 302.72 1921.71 18.84 1436.28 301.82 1924.18 20.13 1438.67 304.64 1927.84 22.21 1447.44 304.03 1923.91 28.93 1457.04 302.8 1923.53 33.47 1460.36 303.89 1926.73 34.63 1463.62 305.26 1923.31 39.86 1470.3 304.87 1922.1 44.02 1479.17 303.67 1926.61 45.34 1482.61 304.2 1924.59 49.02 1486.94 304.37 1925.71 51.04 1490.97 305.45 1927.4 53.48 1500.16 304.67 1925.23 59.25 1509.9 302.47 1927.09 61.61 1516.7 302.24 1922.56 67.92 1519.1 305.08 1924.67 70.92 1527.46 302.68 1922.49 74.6 1531.77 303.75 1925.99 76.14 1538.44 302.81 1924.72 79.79 1540.35 304.28 1923.06 83.32 1551.25 301.65 1924.59 86.1 1556.98 302.4 1922.73 91.23 1558.39 304.73 1923.32 94.03 1566.48 303.75 1926.4 95.95 1568.76 305.21 1923.89 100.18 1578.7 303.75 1923.31 104.79 1586.27 302.72 1924.52 107.43 1588.27 304.82 1921.9 112.2 1595.7 303.25 1921.45 115.18 1602.69 301.81 1926.83 114.67 1604.77 303.18 1927.63 116.78 1611.24 302.94 1921.63 123.74 1613.97 305.45 1925.83 125.4 1621.33 305.31 1922.83 131.24 1629.71 303.79 1923.43 134.21 1637.64 303.52 1921.39 139.69 1642.5 304.49 1923.37 142.34 1651.35 302.67 1923.32 145.65 1652.15 305.12 1923.72 148.32 1660.65 303.44 1922.22 152.42 1668.53 301.99 1922.98 155.08 1672.79 302.01 1927.06 155.21 1673.57 304.02 1925.77 158.41 1679.12 303.75 1927.85 160.14 1683.78 303.86 1925.34 164.39 1689.69 304.74 1924.95 168.91 1695.73 304.75 1926.64 171.43 1699.71 304.77 1924.73 174.85 1710.72 302.09 1926.18 177.69 1713.06 305.1 1927.35 181.38 1724.41 301.6 1925.66 185.41 1726.15 305.09 1924.06 190.83 1739.03 301.8 1921.59 196.4 1743.99 301.93 1928.16 195.6 1745.28 305.06 1926.11 200.66 1754.33 303.76 1927.12 204 1763.62 302.38 1927.87 207.55 1766.51 303.15 1925.04 211.63 1770.03 305.23 1922.89 216.97 1781.25 303.13 1927.95 218.43 1786.44 303.7 1921.63 225.65 1789.8 305.26 1924.37 227.57 1798.13 304.44 1921.89 232.98 1803.8 303.61 1925.47 233.37 1811.56 302.13 1927.3 235.31 1812.95 304.25 1925.83 239.07 1817.15 304.99 1922.38 244.23 1826.45 303.8 1927.43 245.5 1834.82 303.4 1922.25 252.92 1838.44 304.3 1925.89 253.81 1844.56 303.76 1921.96 259.07 1846.88 305.38 1925.41 260.05 1853.4 304.98 1925.39 263.42 1858.24 304.65 1928.08 264.32 1866.24 303.72 1924.06 270.33 1873.28 304.09 1926.88 273.15 1879.19 303.13 1925.31 276.5 1884.92 303.03 1923.47 280.78 1892.93 302.04 1924.16 284.01 1898.9 302.12 1926.74 286.04 1899.56 305.14 1923.99 291.04 1908.89 303.95 1925.78 294.19 1911.56 304.87 1924.08 297.63 1921.14 303.44 1925.23 301.08"/><polyline id="mountains" class="cls-2" points="1830.99 93.12 1833.72 91.54 1826 98.67 1832.58 94.87 1823.08 104.67 1832 99.52 1820.78 109.35 1836.79 100.1 1815.75 116.45 1838.44 103.35 1811.04 123.5 1839.8 106.89 1810.9 126.67 1840.92 109.34 1807.46 131.87 1841.11 112.44 1799.04 140.41 1843.23 114.89 1796.52 145.25 1846.24 116.55 1797.08 148.46 1843.8 121.49 1787.99 157.61 1847.35 123.34 1786.35 161.63 1849.89 124.94 1783.21 167.66 1852.81 127.47 1780.36 173.9 1852.78 132.09 1777.13 178.16 1851.92 134.98 1769.16 187.16 1859.21 135.17 1771.99 188.25 1857.02 139.15 1761.85 198.24 1861.71 140.59 1759.73 203.65 1860.58 145.43 1759.18 207.62 1866.28 145.79 1755.48 212.82 1862.52 151.02 1753.15 216.99 1868.45 150.42 1747.42 223 1867.18 153.85 1744.44 228.28 1871.5 154.93 1743.56 231.23 1871.68 157.25 1742.13 234.8 1868.12 162.06 1737.2 240.34 1871.55 162.77 1735.55 245.76 1872.74 166.55 1728.53 253.79 1873.2 170.27 1727.39 258.75 1875.03 173.5 1721.74 265.56 1879.67 174.38 1717.64 271.87 1881.24 177.41 1713.08 277.77 1883.63 179.3 1707.46 284.61 1883.54 182.95 1706.76 288.02 1884.86 185.19 1702.6 292.94 1885.11 187.56 1702.74 296.35 1886.67 190.16 1694.89 304.29 1890.01 191.63 1704.43 302.95 1888.13 196.89 1707.85 305.37 1892.43 198.81 1716.58 303.04 1893.71 200.77 1719.35 304.1 1895.73 202.27 1727.43 302.82 1894.56 206.33 1733.5 302.88 1899.22 207.21 1737.71 304.01 1902.61 208.81 1746.27 302.35 1901.96 212.46 1750.71 303.76 1902.08 216.37 1755.64 305.25 1906 218.44 1762.86 303.82 1906.78 220.73 1772.33 302.07 1907.09 224.27 1777.79 302.34 1910.06 225.97 1783.34 303.51 1911.82 229.34 1786.42 305.38 1916.05 230.53 1798.4 302.53 1915.05 235.19 1804.49 302.87 1915.8 238.61 1810.67 302.35 1918.97 239.83 1811.11 304.57 1916.2 243.9 1822.54 302.1 1918.31 246.81 1825.06 305.2 1926.13 246.85 1833.46 302.75 1922.06 251.6 1840.48 301.68 1923.01 254.03 1844.76 301.62 1925.97 254.73 1848.98 302.86 1925.72 258.55 1856.27 302.19 1922.39 264.01 1860.67 302.7 1922.43 267.04 1864.7 303.84 1923.63 269.81 1873.48 303.33 1923.88 274.23 1877.32 303.95 1923.45 277.32 1884.21 303.61 1924.86 280.15 1888.97 305.31 1927.47 283.09 1895.63 304.5 1925.35 287.34 1903.03 304.63 1924 292.52 1910.82 304.37 1926.88 295.1 1917.66 303 1923.25 299.77 1923.38 303.45 1924.88 302.59"/><polyline id="mountains-2" data-name="mountains" class="cls-2" points="1532.41 92.64 1535.51 90.85 1531.47 97.67 1539.74 92.89 1523.45 106.45 1543.74 94.73 1524.43 108.78 1542.86 98.13 1521.05 113.33 1541.88 101.3 1516.19 119.28 1544.78 102.77 1516.34 121.92 1548.86 103.14 1512.9 126.58 1547.38 106.67 1505.6 133.98 1551.94 107.23 1501.67 140.83 1550.83 112.45 1497.41 146.93 1551.37 115.78 1494.1 152.84 1555.9 117.16 1487.72 160.98 1555.75 121.7 1486.36 164.41 1560.22 121.76 1484.86 169.89 1563.44 124.52 1478.29 177.34 1560.76 129.72 1471.69 184.53 1563.69 131.42 1472.68 188.21 1567.02 133.75 1468.9 192.78 1572.62 132.89 1464.53 199.49 1574.91 135.76 1458.1 207.43 1576.4 139.13 1453.29 214.66 1573.08 145.5 1448.45 220.5 1576.42 146.61 1448.45 223.86 1578.19 148.95 1443.68 228.97 1580.8 149.8 1440.51 233.93 1583.56 151.34 1434.71 241.75 1585.13 154.91 1434.26 246.13 1584.96 159.13 1428.77 252.17 1586.66 161.01 1426.04 256.15 1587.6 162.87 1423.98 260.4 1590.63 164.19 1421.62 266.08 1597.12 164.76 1412.6 274.37 1595.89 168.54 1412.52 277.58 1594.91 172.28 1410.07 283.3 1601.9 172.55 1406.69 287.67 1599.72 176.22 1400.62 294.82 1604.7 177 1399.57 299.79 1604.38 181.54 1402.11 302.53 1605 185.4 1405.06 304.65 1610.6 185.98 1415.44 301.54 1611.78 188.19 1416.59 303.48 1610.77 191.37 1420.91 305.28 1613.47 194.11 1432.73 302.64 1614.58 197.65 1437.61 303.85 1616.13 200.78 1440.8 304.91 1620.49 201.16 1446.73 305.18 1625 202.26 1458.08 302.07 1623.98 206.29 1463.75 303.07 1628.16 208.15 1470.93 302.23 1627.93 211.58 1478.25 301.71 1626.53 216.11 1482.31 303.25 1632.12 216.76 1491.66 302.28 1632.75 220.82 1492.5 305.18 1637.45 221.49 1501.17 303.12 1637.58 224.37 1505.96 304.81 1638.95 228.03 1515.52 302.6 1642.89 229.06 1521.69 303.19 1640.53 234.58 1531.64 301.83 1649.29 233.9 1531.46 304.37 1649.15 236.42 1538.69 304.38 1646.9 241.9 1548.3 302.03 1653.55 241.26 1553.09 302.65 1651.3 245.94 1553.74 305.2 1657.75 245.15 1561.95 304.91 1656.04 250.59 1567.43 304.97 1661.13 250.87 1575.56 303.7 1663.69 252.82 1580.27 304.45 1664.38 255.89 1590.17 301.51 1661.4 260.39 1593.45 302.81 1661.99 263.24 1596.83 303.91 1670.18 261.56 1601.51 304.19 1668.53 265.5 1610.4 302.9 1669.75 268.63 1617.31 303.31 1674.22 270.45 1619.9 304.9 1673.94 273.71 1627.83 304.69 1680.28 274.4 1640.84 301.63 1677.21 280.63 1640.85 304.13 1677.72 282.84 1644.69 305.29 1684.08 282.55 1652.49 305.24 1685.93 285.93 1663.01 302.61 1686.83 288.86 1665.62 303.98 1691.51 289.04 1672.2 303.07 1691.81 291.75 1676.45 304.07 1688.01 297.39 1680.52 304.48 1691.85 297.95 1685.43 304.04 1693.15 299.58 1690.25 304.22 1695.52 301.18 1697.65 302.5 1699.24 301.58"/><polyline id="mountains-3" data-name="mountains" class="cls-2" points="1225.22 87.19 1229.02 84.99 1215.02 97.07 1230.3 88.25 1213.99 101.66 1231.62 91.48 1210.28 106.23 1231.75 93.84 1204.66 112.79 1235.96 94.72 1195.28 122.48 1234.38 99.9 1194.71 125.17 1234.26 102.33 1186.7 134.24 1239.04 104.03 1179.39 141.15 1238.81 106.85 1174.93 147.19 1239.05 110.16 1171.07 153.16 1242.31 112.03 1164.74 160.91 1247.54 113.11 1154.44 170.4 1250.19 115.12 1150.95 175.79 1250.19 118.5 1145.43 181.3 1255.08 118 1143.7 184.9 1256.1 120 1137.54 190.84 1254.34 123.41 1137.53 194.32 1254.84 126.59 1129.49 201.89 1255.34 129.23 1120.98 211 1260.73 130.31 1116.98 215.79 1263.44 131.24 1111.9 222.27 1266.04 133.27 1109.97 226.64 1266.6 136.21 1099.93 236.45 1264.3 141.55 1096.29 242.01 1266.14 143.95 1089 250.04 1271.31 144.78 1086.38 255.46 1276.61 145.63 1077.49 263.83 1278.37 147.86 1071.08 271.1 1274.54 153.64 1068.84 275.53 1276.87 155.42 1061.55 283.89 1282 156.62 1056.81 289.41 1281.93 159.43 1052.18 296.59 1285.74 161.74 1048.28 301.91 1288.09 163.46 1052.19 302.36 1286.8 166.91 1055.45 304.61 1289.08 169.73 1063.92 302.19 1290.43 171.41 1065.58 304.14 1293.7 172.44 1071.14 303.66 1297.04 173.23 1079.4 302.36 1295.96 177.32 1086.88 301.71 1294.89 181.62 1087.38 303.93 1298.32 182.14 1096.18 302.45 1300.3 184.61 1100.82 302.45 1302.22 186.17 1104.5 304.81 1307.34 187.71 1117.6 301.81 1306.71 192.63 1120.9 304.02 1309.21 195.29 1125.3 304.38 1313.67 195.63 1131.71 304.89 1310.87 201.45 1138.85 304.64 1316.38 202.15 1144.03 305.36 1319.91 203.82 1153.6 304.16 1320.95 207.54 1159.84 305.05 1320.14 212.5 1165.35 304.98 1325.03 212.79 1174.72 303.71 1327.21 215.67 1181.13 302.76 1327.69 218.14 1187.14 302.85 1332.19 219.11 1195.06 301.8 1328.84 224.57 1199.52 301.55 1335.79 222.88 1200.65 303.53 1335.47 225.7 1209.62 302.02 1333.66 230.4 1214.89 302.38 1337.88 231.37 1220.21 303.68 1343.06 232.75 1228.22 303.54 1341.67 238.03 1233.36 303.63 1345.45 238.91 1239.91 303.23 1347.09 241.35 1245.2 303.57 1349.22 243.51 1252.78 301.57 1347.99 246.6 1254.87 303.07 1347.9 249.36 1261.48 302.01 1352.72 249.33 1267.46 302.51 1351.55 253.96 1270.17 303.89 1355.72 254.5 1273.63 305.16 1357.23 256.89 1286.59 302.24 1361.1 259.22 1291.85 302.81 1362.84 261.83 1299.93 302.41 1367.5 263.4 1304.83 303.78 1369.97 266.17 1314.38 302.71 1369.33 270.99 1319.34 302.49 1370.34 273.05 1326.37 302.32 1376.04 273.64 1332.75 302.49 1372.66 279.45 1341.22 301.5 1376.73 280.99 1341.38 304.83 1379.99 282.54 1354.24 301.88 1383.72 284.85 1358.46 302.35 1381.46 289.07 1366.24 302.32 1388.4 289.53 1372.66 302.14 1387.22 293.74 1372.27 305.43 1389.71 295.36 1377.58 305.45 1391.15 297.62 1382.97 305.38 1390.18 301.22 1393.03 303.45 1394.36 302.68"/><polyline id="mountains-4" data-name="mountains" class="cls-2" points="848.1 94.35 852.31 91.92 844.34 100.02 857.72 92.3 838.06 107.48 856.55 96.8 826.91 118.21 859.15 99.59 826.76 122.31 861.85 102.05 817.71 130.62 861.63 105.26 813.57 137.32 865.7 107.22 805.5 145.9 868.77 109.37 795.53 156.15 872.16 111.91 792.6 160.18 873.85 113.27 783.56 169.26 873.09 117.57 775.71 177.99 879.22 118.22 770.38 183.69 877.86 121.63 765.53 190.59 880.52 124.2 761.34 195.35 881.49 125.99 755.24 202.73 887.64 126.28 747.11 211.12 889.55 128.88 747.92 213.35 887.35 132.85 736.37 223.49 889.84 134.88 732.23 230.06 891.62 138.05 728.79 235.12 896.92 138.05 718.45 243.71 898.64 139.68 713.6 249.99 896.58 144.34 712.45 253.01 902.92 143.04 703.59 262.69 904.26 146.83 693.18 273.21 905.15 150.84 688.66 279.16 907.4 152.87 687.02 282.46 911.17 153.05 680.57 290.46 908.96 158.6 672.59 298.93 912.89 160.19 667.66 304.71 919.02 159.59 677.8 302.4 920.73 162.14 681.05 304.16 921.61 165.28 684.85 304.94 920.48 168.9 694.26 302.91 926.18 169.01 700.36 302.95 924.93 173.29 703.32 304.84 931.01 173.38 713.37 302.81 932.36 176.38 716.08 304.78 932.9 179.6 722.72 304.06 932.22 183.11 734.24 301.88 936.06 185.35 734.08 304.37 937.12 187.15 740.44 303.63 938.5 189.28 748.81 302.27 942.64 190.36 754.24 301.77 943.26 192.64 759.38 302.71 943.54 196.39 766.98 302.85 951.19 196.5 771.37 302.69 947.39 201.07 778.51 302.71 951.65 202.74 785.62 303.05 956.2 204.57 788.65 305.01 957.93 207.27 792.81 305.07 960.2 208.43 802.86 303.82 965.1 210.15 806.13 304.78 963.39 213.98 812.18 304.3 966.52 215.19 817.3 304.7 967.52 217.97 826.69 303.1 972.76 218.77 829.41 304.42 968.55 224.09 832.39 305.27 975.03 222.92 841.76 302.7 974.69 225.95 845.54 303.65 973.47 229.79 853.4 302.74 975.44 232.28 855.25 304.71 980.02 232.67 866.6 301.88 983.59 234.33 872.67 302.34 987.38 236.12 880.3 301.5 985.74 240.62 882.76 303.43 987.6 242.9 890.27 302.69 992.79 243.5 891.49 304.63 995.73 244.44 894.49 305.21 991.02 249.48 899.08 305.11 993.22 250.76 906.75 303.58 996.43 251.8 911.7 303.42 998.34 253.4 912.85 305.17 1000.48 254.58 920.79 304.71 1004.45 256.41 929.01 304.14 1007.63 258.75 939.65 301.94 1008.9 261.96 940.9 305.3 1013.01 263.67 950.98 303.69 1010.13 269.54 957.23 303.4 1012.9 271.26 966.41 302.38 1019.33 271.82 969.8 303.01 1021.66 273.06 977.4 302.58 1021.17 277.31 981.01 303.68 1024.41 278.63 985.38 304.21 1023.13 282.42 992.03 304.61 1027.75 283.98 1000.06 304.06 1030.16 286.68 1007.26 304.35 1032.13 289.99 1016.33 302.18 1035.7 290.99 1018.16 304.52 1033.4 295.73 1023.1 305.22 1037.43 296.95 1032.1 303.87 1037.92 300.51 1040.1 303.6 1046.23 300.05"/><polyline id="mountains-5" data-name="mountains" class="cls-2" points="498.8 96.64 500.49 95.66 497.12 100.63 499.28 99.38 487.32 109.95 502.15 101.39 481.21 117.31 505.52 103.28 477.91 121.64 505 106 474.07 128.06 507.07 109.01 471.94 133.23 513.64 109.16 465.52 140.33 514.57 112.01 458.53 148.37 512.92 116.97 454.75 154.07 517.06 118.09 449.26 161.21 518.81 121.06 441.82 169.8 525.4 121.55 439.25 175.29 527.93 124.09 431.41 182.36 524.63 128.53 429.63 185.74 528.36 128.74 424.38 191.57 531.05 129.98 419.46 197.1 528.05 134.41 418.95 201.63 531.04 136.91 412.51 209.36 535.17 138.54 400.82 220.3 539.82 140.05 399.45 224.74 540.48 143.32 395.5 231.03 542.29 146.28 389.35 238.27 544.18 148.88 380.79 246.23 546.31 150.66 379.18 250.52 545.39 154.56 378.03 254.08 547.18 156.42 373.05 259.72 552.95 155.85 362.47 269.61 552.82 159.71 361.34 272.94 550.52 163.72 356.44 280.35 555.64 165.34 353.19 286.25 556.79 168.7 341.63 297.23 559.91 171.21 342.95 299.25 564.38 171.4 339.86 303.9 566.4 173.11 347.73 303.47 564.88 178.09 349.72 305.28 566.64 180.04 357.04 303.48 568.89 181.17 364.55 301.47 573.57 180.79 371.33 301.91 570.95 186.66 376.36 301.76 577.25 185.78 380.98 302.05 577.35 188.67 384.17 304.81 577.05 193.46 392.09 304.81 578.78 197.01 404.2 302.09 584.79 197.82 408.43 302.74 581.89 202.59 412.55 303.62 589.57 201.41 420.45 301.68 586.77 205.66 421.9 305.01 589.57 208.2 429.77 304.53 593.54 209.97 439.78 301.46 595.38 211.63 440.66 304.65 594.91 215.59 450.34 301.98 599.41 215.91 457.26 302.6 602.61 218.68 458.29 304.58 600.93 222.23 465.03 304.88 605.95 223.53 475.78 302.65 607.1 226.83 481.62 303.35 605.76 231.68 490.08 303.04 608.57 234.63 491.58 305 614.33 234.13 502.25 301.87 613.66 237.54 500.85 305.29 612.68 240.72 511.3 303.09 618.94 240.94 520.6 301.74 623.86 242.12 521.45 304.22 625.07 244.39 524.45 305.06 620.24 249.76 533.16 303.76 628.81 248.54 539.71 303.3 630.05 251.14 543.15 303.81 626.15 255.88 550.43 302.18 631.85 255.18 553.82 304.41 632.49 258.99 561.02 303.7 632.11 262.66 566.72 303.27 634.05 264.4 577.16 301.68 637.35 266.93 577.43 304.11 638.74 268.71 584.05 302.62 643.23 268.45 592.41 301.87 644.49 271.8 594.94 304.1 644.14 275.7 601.74 303.88 645.63 278.54 606.02 304.89 651.03 278.9 611.48 304.48 650.51 281.95 619.45 302.26 651.16 283.96 621.78 304.52 652.74 286.64 629.88 304.34 655 289.83 642.11 301.49 658.67 291.93 646.61 302.08 658.05 295.48 652.14 302.89 659.91 298.4 657.77 301.99 664.21 298.27 661.64 303.28 663.93 301.95 667.53 302.91 669.3 301.89"/><polyline id="mountains-6" data-name="mountains" class="cls-2" points="178.37 96.98 182.93 94.35 174.96 101.47 182.07 97.37 173.43 105.86 189.04 96.84 163.24 115.12 186.34 101.78 158.41 121.04 190.91 102.28 154.41 126.38 194.04 103.5 152.04 131.32 189.33 109.79 145.32 138.05 195.16 109.28 139.03 145.19 195.5 112.59 136.33 149.15 193.93 115.89 125.23 159.63 198.23 117.49 122.74 165.46 198.41 121.78 117.66 171.49 203.6 121.87 108.39 180.11 202.63 125.71 107.7 182.89 209.15 124.32 97.85 192.62 209.71 128.04 90.73 200.73 210.04 131.85 90.45 204.35 210.05 135.3 79.97 214.96 215.83 136.52 72.23 223.62 216.48 140.34 64 232.6 219.44 142.86 61.17 237.32 220.1 145.57 51.68 246.71 225.97 146.08 47.91 252.55 223.89 150.95 40.83 261.1 228.99 152.47 36.44 267.23 226.13 157.72 25.59 278 229.78 160.11 21.73 283.13 231.43 162.06 13.53 291.24 237.32 162.04 13.03 294.53 235.53 166.07 8.91 299.72 237.4 167.8 7.64 303.21 240.73 168.63 14.61 303.4 243.19 171.43 20.36 302.86 241.47 175.2 22.68 304.02 245.4 175.44 27.5 303.62 243.33 179.01 36.24 302.13 250 178.71 38.28 304.14 245.52 184.49 45.15 303.03 252.39 183.38 48.56 303.47 251.9 186.07 57.21 302.21 256.54 187.13 59.75 305.26 253.58 193.35 72.15 301.98 254.42 196.75 77.08 301.9 261.09 195.66 80.11 303.7 261.6 198.92 83.2 304.52 262.94 200.75 88.48 304.52 264.93 202.65 96.84 303.32 266.13 205.58 105.45 302.35 269.87 207.42 108.49 303.87 270.39 210.4 114.16 304.3 274.71 211.6 122.43 302.89 274.51 215.08 122.23 305.37 274.88 217.23 127.93 304.39 273.28 220.47 138.29 301.47 278.96 220.26 140.82 304.59 280.29 224.07 150.04 303.6 279.33 228.95 160.23 301.65 280.99 231.94 160.26 304.72 286.03 232.11 165.3 305.03 285.07 235.88 176.57 302.92 292.55 235.96 182.68 303.44 289.29 241.89 188.51 302.77 293.33 242.25 196.71 302.56 293.48 246.69 200.64 303.78 295.24 249.16 210.43 302.03 300.21 250.19 214.14 303.16 300.88 253.08 217.52 304.92 303.09 255.52 223.92 303.74 304.64 257.13 230.63 303.61 302.43 262.15 240.45 302.3 306.39 264.23 244.17 302.96 307.1 266.63 249.18 303.94 310.52 268.53 255.5 303.04 311.19 270.89 257.86 304.52 317.58 270.04 266.37 303.59 316.98 274.37 274.64 302.26 315.1 278.9 280.06 302.47 320.99 278.83 285.46 302.09 320.92 281.62 294.15 301.56 325.31 283.57 297.98 302.14 328.5 284.52 306.17 302.03 329.32 288.66 310.78 302.09 326.23 293.17 313.76 303.3 329.11 294.43 318.41 303.95 329.19 297.72 322.81 305.17 335.29 297.97 330.05 303.91 335.93 300.51 337.5 302.2 340.46 300.49"/></g><g id="circles"><polyline class="cls-2" points="258.22 120.07 271.25 112.55 253.15 125.7 278.12 111.28 253.81 128.78 282.08 112.47 251.5 133.58 288.85 112.02 250.26 138.84 295.35 112.81 246.9 144.4 293.09 117.73 247.94 147.05 298.75 117.71 244.92 152.8 302.69 119.44 251.75 151.23 304.52 120.76 250.16 154.7 307.17 121.79 250.54 157.32 307.86 124.23 254.69 158.22 308.89 126.93 253.43 161.42 310.93 128.22 255.97 163.48 312.9 130.61 257.71 166.53 308.44 137.25 260.65 169.18 311.27 139.95 262.51 171.45 314.13 141.64 263.45 173.83 310.92 146.42 267.77 175.17 311.32 150.03 272.43 176.63 313.54 152.9 280.56 175.15 308.19 159.19 282.14 176.56 308.95 161.07 289.74 175.18 305.18 166.27"/><polyline class="cls-2" points="26.95 118.39 41.33 110.09 19.95 125.81 52.75 106.87 11.09 134.24 60.14 105.92 12.9 135.78 62.38 107.21 10.75 139.74 65.72 108.01 10.75 142.53 66.84 110.14 5.02 149.78 71.83 111.21 6.75 151.77 74.95 112.4 10.72 153.94 84.63 111.27 9.01 159.14 82.41 116.76 8.2 163.53 85.14 119.1 10.3 165.3 93.68 117.16 7.31 170.84 94.39 120.56 8.38 174.07 93.8 124.75 7.37 176.97 95.46 126.11 13.24 176.5 98.6 127.22 11.32 180.97 100.5 129.48 16.52 181 101.26 132.08 18.47 183.88 105.5 133.63 16.7 188.93 108.43 135.97 19.8 189.89 107.68 139.15 23.74 190.57 104.46 143.96 25.56 194.04 109.48 145.58 26.46 196.82 105.48 151.2 31 197.21 109.24 152.04 33.32 198.81 108.87 155.19 31.12 202.51 112.08 155.77 34.67 203.34 111 159.28 40.95 203.19 110.1 163.26 38.63 208.72 105.12 170.33 47.69 207.23 107.06 172.96 53.43 206.86 107.6 175.59 53.56 210.18 105.64 180.12 61.84 209.27 99.54 187.5 73.73 206.66 95.17 194.28"/><polyline class="cls-2" points="956.63 50.46 974.15 40.34 948.63 58.81 987.59 36.32 946.4 63.69 994.39 35.98 945.42 67.78 999.46 36.58 941.28 74.14 1008.31 35.44 935.57 81.85 1010.37 38.66 937.18 83.25 1016.16 37.66 936.17 87.91 1022.02 38.34 933.87 92.75 1027.47 38.72 934.08 95.67 1028.21 41.31 932.65 99.6 1029.21 43.85 932.7 103.47 1035.88 43.9 932.43 106.3 1036.99 45.93 932.69 109.58 1041.89 46.53 939.2 110.15 1038.85 52.61 935.6 116.72 1046.18 52.88 940.94 116.96 1048.93 54.61 938.59 121.22 1046.3 59.04 942.55 121.93 1048.01 61.04 941.66 125.78 1048.53 64.09 945.02 127.05 1049.83 66.54 942.65 131.93 1055.73 66.65 943.48 135.04 1055.94 70.11 947.11 135.89 1060.12 70.64 945.95 139.87 1060.63 73.66 951.01 140.02 1061.3 76.34 949.72 143.3 1057.38 81.14 951.23 145.31 1063.34 80.58 957.09 145.09 1062.17 84.42 960.09 147.79 1062.13 88.87 962.32 149.93 1059.8 93.65 965.55 151.98 1066.3 93.81 964.17 156.35 1062.71 99.46 968.32 156.41 1060.93 102.94 970.42 159.17 1061.42 106.63 978.88 157.37 1063.92 108.27 977.76 162.04 1058.3 115.54 982.4 162.45 1057.32 119.2 986.34 163.07 1057.44 122.02 993.53 163.5 1053.81 128.7 997.39 163.61 1055.16 130.25 1008.57 161.33 1049.53 137.68 1011.84 161.79 1048.67 140.53 1025.32 156.65 1038.27 149.17"/><polyline class="cls-2" points="1360.06 179.07 1378.04 168.69 1357.23 183.8 1384.26 168.19 1351.36 190.38 1389.76 168.21 1353.06 192.75 1392.62 169.91 1346.02 200.57 1397.17 171.04 1348.17 201.88 1405.97 168.51 1346.19 205.38 1403.87 172.08 1347.7 208.1 1405.97 174.47 1350.4 210.76 1411.55 175.45 1351.44 214.64 1417.71 176.37 1348.52 220.41 1422.34 177.79 1348.75 222.89 1420.92 181.22 1351.65 224.77 1421.48 184.45 1351.74 228.26 1422.45 187.44 1351.38 231.81 1423.87 189.96 1354.62 233.18 1429.97 189.68 1354.51 236.17 1430.8 192.13 1359.29 236.74 1430.96 195.36 1361.75 238.56 1430.09 199.1 1361.43 242.17 1427.3 204.14 1361.89 244.98 1427.86 206.89 1369.28 243.08 1428.81 208.71 1367.16 247.53 1433.87 209.02 1373.73 248.02 1432.49 214.09 1377.15 249.58 1431.46 218.22 1379.88 251.02 1427.74 223.39 1386.42 251.47 1425.18 229.09 1393.25 250.75 1423.1 233.51 1402.89 249.03 1419.95 239.18"/><polyline class="cls-2" points="366.8 26.66 385.61 15.8 364.22 30.55 391.8 14.62 360.44 36.33 401.9 12.39 357.66 41.81 409.4 11.93 352.59 47.56 414.84 11.62 350.9 52.7 420.51 12.52 353.34 53.87 419.18 15.86 350.2 58.17 421.08 17.24 349.52 62.23 428.39 16.69 348.33 65.56 428.77 19.12 347.83 69.99 430.58 22.22 348.34 72.79 434.47 23.06 352.33 73.25 439.93 22.68 352.05 75.9 438 26.28 349.67 80.81 443.26 26.78 349.2 83.99 444.78 28.8 349.82 86.28 447.87 29.67 352.64 88.5 449.88 32.36 356.02 89.31 445.94 37.39 352.78 93.53 452.69 35.84 355.41 94.94 451.6 39.41 358.67 96.24 454.13 41.13 356.61 101.79 456.77 43.97 362.16 102.89 455.07 49.25 359.32 107.14 457.39 50.51 367.41 105.49 455.09 54.87 369.19 107.36 461.7 53.94 367.01 113.08 460.11 59.33 371.47 114.19 461.34 62.3 373.51 117.31 459.92 67.42 377.63 117.99 456.94 72.2 384.62 117.68 461.05 73.55 381.73 122.69 458.31 78.48 392.12 120.89 454.81 84.69 394.27 122.36 458.34 85.37 396.57 123.67 458.9 87.69 402.36 124.61 450.33 96.92 408.52 124.41 449.77 100.59 420.56 121.96 443.56 108.68"/><polyline class="cls-2" points="738.43 34.21 749.98 27.54 725.09 45.99 766.07 22.33 723.49 49.54 768.79 23.39 721.01 54.18 772.14 24.66 716.4 60.06 775.81 25.76 719.24 62.77 782.19 26.43 720.62 64.82 786.73 26.66 713.54 73.38 789.46 29.54 718.74 74.76 796.5 29.87 718.35 78.75 799.6 31.84 719.31 82.19 804.41 33.06 719.55 85.19 807.59 34.36 720.43 87 806.25 37.45 721.35 91.02 806.55 41.82 718.59 96.86 813.84 41.87 721.62 98.38 815.86 43.97 723.04 102.14 818.24 47.18 724.18 104.37 816.05 51.33 726.45 107.41 816.61 55.36 726.02 111.63 820.05 57.34 731.69 112.02 820.72 60.62 733.8 114.05 818.75 65 732.63 118.94 821.62 67.56 738.29 119.11 821.51 71.06 737.64 122.91 823.82 73.15 744.44 122.52 823.02 77.15 746.18 124.5 824.94 79.03 754.02 124.49 822.92 84.71 755.8 127.72 819.42 90.99 760.46 128.2 817.29 95.39 764.89 129.47 815.07 100.5 773.97 128.48 812.49 106.25 780.3 128.02 810.46 110.61 790.67 125.04 803 117.92"/><polyline class="cls-2" points="630.21 160.57 645.71 151.62 626.79 165.9 655.55 149.29 621.01 171.86 667.47 145.04 619.85 174.94 668.8 146.68 616.5 180.62 670.94 149.19 615.93 183.43 680.13 146.36 617.43 186.59 684.86 147.66 613.7 191.84 683.69 151.43 615.18 195.27 688 153.23 615.16 199.53 692.45 154.91 615.43 203.11 698.3 155.26 619.18 204.78 696.02 160.42 616.63 209.08 700.08 160.9 618.71 210.93 701.95 162.87 620.17 213.25 704.39 164.63 617.5 219.1 705.09 168.53 622.01 220.32 710.77 169.08 624.84 223.04 710.49 173.59 622.29 227.67 710.02 177.01 626.45 228.18 714.31 177.45 624.02 231.93 712.9 180.61 628.1 232.78 716.75 181.6 631.84 234.21 711.86 188.01 629.9 237.81 714.14 189.17 634.94 237.64 713.83 192.09 635.44 241.28 718.02 193.6 641.5 240.95 713.92 199.14 645.96 240.86 718.07 199.22 649.95 242.49 714.2 205.39 653.46 244.35 711.87 210.63 656.17 245.42 712.91 212.67 657.72 248.64 715.41 215.33 661.64 249.61 707.9 222.9 672.8 246.88 704.6 228.51 680.52 245.38 699.15 234.63"/><polyline class="cls-2" points="1335.49 31.18 1346.18 25.01 1323.8 41.48 1357.11 22.25 1316.68 49.96 1369.21 19.64 1317.15 54.12 1372.47 22.18 1315.88 58.59 1379.92 21.62 1315.18 63.39 1387.31 21.75 1308.98 70.37 1386.91 25.38 1309.16 74.17 1389.03 28.05 1310.78 75.87 1393.19 28.29 1309.97 78.68 1399.76 26.84 1310.38 82.24 1397.85 31.74 1312.22 83.6 1400.61 32.57 1311.63 87.15 1403.15 34.31 1310.41 90.63 1405.46 35.75 1317.01 90.03 1408.27 37.34 1314.82 95.47 1412.01 39.35 1318.15 95.86 1415.25 39.8 1313.33 101.61 1412.52 44.35 1315.77 102.6 1417.11 44.09 1317.79 103.75 1417.51 46.18 1322.07 105.7 1414.19 52.52 1320.57 111.11 1419.39 54.05 1326.23 110.97 1421.1 56.2 1325.74 113.94 1422.08 58.32 1330.72 113.92 1419.66 62.57 1331.6 115.88 1424.14 62.45 1331.48 120.21 1423.35 67.17 1333.96 123.23 1425.29 70.5 1336.28 125.5 1426.36 73.49 1342.29 125.7 1422.33 79.48 1341.16 128.91 1423.02 81.65 1347.65 128.95 1425.11 84.22 1351.1 130.09 1420.19 90.2 1358.11 129.88 1424.52 91.54 1358.85 133.39 1418.25 99.09 1366.15 133.39 1413.88 105.83 1375.07 132.03 1411.96 110.73 1385.5 129.19 1409.97 115.06"/><polyline class="cls-2" points="119.19 23.69 129.03 18 111.41 32 137.83 16.74 113.42 35.45 144.52 17.49 108.95 40.47 148.24 17.79 109.54 42.54 147.98 20.35 110.6 44.35 150.41 21.36 112.87 45.38 154.59 21.29 111.87 49.1 153.91 24.83 110.11 54.53 153.44 29.51 109.72 57.27 155.44 30.87 110.76 59.53 155.51 33.7 115.89 60.99 161.8 34.49 120.55 61.37 159.44 38.91 123.48 63.88 160.7 42.39 126.68 66 158.17 47.83 132.29 67.21 157.44 52.69 136.4 68.05 159.7 54.6 137.02 70.73 155.16 60.25"/><polyline class="cls-2" points="1509.45 21.18 1515.76 17.54 1499.1 30.86 1527.36 14.54 1495.87 36.93 1532.09 16.02 1497.2 39.77 1534.57 18.2 1494.28 45.91 1539.96 19.54 1498.34 46.57 1541.91 21.41 1498.92 49.49 1544.84 22.98 1496.51 53.43 1546.29 24.68 1496.88 56.97 1545.34 28.99 1502.01 57.02 1553.38 27.36 1502.13 60.79 1550.67 32.77 1503.29 63.59 1550.17 36.52 1508.9 63.68 1555.53 36.76 1511.51 66.62 1553.89 42.16 1514.45 69.23 1556.04 45.21 1518.8 69.83 1550.74 51.39 1523.26 70.8 1551.48 54.5 1533.04 69.44 1545.9 62.01"/><polyline class="cls-2" points="1159.67 31.07 1168.13 26.19 1153.2 37.94 1179.31 22.87 1151.57 42.16 1181.09 25.12 1153.19 45.42 1190.87 23.66 1154.74 47.08 1189.77 26.86 1150.62 53.07 1194.21 27.9 1156.42 54.29 1195.42 31.77 1155.92 58.06 1197.51 34.04 1156.04 62.5 1202.65 35.59 1159.59 64.61 1201.97 40.14 1158.81 67.53 1204.79 40.98 1162.01 68.89 1205.88 43.56 1166.23 70.5 1202.34 49.65 1167.42 72.97 1201.9 53.06 1167.95 75.5 1200.52 56.7 1175.98 75 1200.21 61.01 1181.14 74.92 1201.27 63.29"/><polyline class="cls-2" points="1643.69 103.34 1662.4 92.54 1636.63 110.91 1674.15 89.25 1634.76 115.65 1688.6 84.57 1628.62 123.37 1696.19 84.36 1625.52 129.6 1701.47 85.75 1624.01 133.25 1706.42 85.67 1618.9 139.25 1704.32 89.93 1619.08 141.51 1709.56 89.27 1619.97 144.38 1717.46 88.09 1621.83 147.21 1716.36 92.63 1618.85 151.94 1720.49 93.26 1620.46 153.98 1726.68 92.65 1620.06 157.01 1727.75 94.84 1620.57 159.26 1726.42 98.14 1621.28 161.99 1731.71 98.24 1617.74 166.46 1733.53 99.6 1621.06 167.73 1735.43 101.69 1623.7 170.37 1741.14 102.56 1619.51 176.5 1740.28 106.77 1618.49 179.54 1745.29 106.33 1623.05 179.25 1740.85 111.24 1621.05 183.98 1749.33 109.92 1624.92 185.73 1750.18 113.41 1623.61 190.79 1753.21 115.97 1626.64 192.63 1751.9 120.31 1628.88 193.89 1755.53 120.77 1630.61 197.49 1756.23 124.96 1633.81 200.22 1754.12 130.75 1632.24 205.01 1755.72 133.72 1639.47 203.84 1760.15 134.16 1638.3 207.16 1762.12 135.67 1642.6 207.79 1764.1 137.65 1643.94 210.75 1764.16 141.34 1648.22 211.55 1759.05 147.56 1644.63 216.05 1762.64 147.91 1652.97 215.43 1764.01 151.33 1653.49 218.07 1762.6 155.09 1656.14 220.57 1761.09 159.98 1660.43 221.13 1760.68 163.25 1663.09 222.16 1765.24 163.19 1666.68 223.4 1765.87 166.14 1668.01 225.76 1764.64 169.97 1671.11 227.86 1758.43 177.45 1673.81 229.16 1759.45 179.72 1678.67 229.44 1756.86 184.29 1685.4 229.75 1753.94 190.18 1687.66 231.99 1754.04 193.66 1699.5 228.96 1751.14 199.14 1704.6 230.21 1742.53 208.31 1717.85 225.37 1734.83 215.57"/><polyline class="cls-2" points="1833.62 26.81 1849.13 17.86 1825.46 35.55 1860.98 15.03 1828.58 36.77 1864.65 15.95 1825.43 41.34 1870.13 15.53 1821.41 46.57 1873.88 16.28 1824.52 48.08 1879.08 16.58 1819.72 54.55 1878.33 20.71 1823.37 55.61 1885.74 19.6 1820.95 60.66 1885.5 23.39 1818.84 66.47 1890.59 25.05 1822.72 66.74 1889.84 27.99 1819.84 72.52 1893.81 29.81 1821.95 75.2 1897.36 31.67 1822.7 78.63 1900.18 33.89 1824.75 79.82 1897.38 37.88 1830.31 80.53 1903.51 38.27 1828.65 84.38 1905.79 39.84 1830.87 87.45 1907.31 43.32 1834.22 89.11 1906.82 47.19 1837.96 89.96 1903.92 51.87 1838.91 92.91 1907.84 53.11 1842.81 94.36 1909.26 56 1845.45 95.68 1905.5 61.02 1848.06 98.08 1908.02 63.46 1847.21 101.25 1904.37 68.26 1852.83 102.15 1903.71 72.78 1859.49 101.19 1901.71 76.81 1866.68 99.82 1903.23 78.72 1872.86 99.37 1896.41 85.77 1874.38 100.89 1888.18 92.92"/></g><g id="Editable"><path class="cls-3" d="M311.88,128.19a87.51,87.51,0,0,1-17.69,53.09l55.17,54.83a13.83,13.83,0,1,1-19.56,19.56L275,200.5a87.51,87.51,0,0,1-53.09,17.69,90,90,0,1,1,90-90Zm-135,31.15a10.39,10.39,0,1,0,20.77,0V131.65a10.39,10.39,0,0,0-20.77,0Zm34.61,0a10.39,10.39,0,1,0,20.77,0V90.11a10.39,10.39,0,1,0-20.77,0Zm34.62,0a10.39,10.39,0,1,0,20.77,0V117.8a10.39,10.39,0,0,0-20.77,0Z" transform="translate(4.88 3.49)"/><path class="cls-3" d="M1658.35,217.64a7.65,7.65,0,0,0,7.64,7.64h190.8a15.27,15.27,0,1,1,0,30.53H1666a38.16,38.16,0,0,1-38.17-38.17V57.37a15.27,15.27,0,1,1,30.53,0Zm132.9-57.91a15.22,15.22,0,0,1-21.56,0l-27.38-27.33L1699.66,175a15.25,15.25,0,0,1-21.56-21.56L1731.53,100a15.23,15.23,0,0,1,21.56,0l27.38,27.33,50.28-50.23a15.25,15.25,0,0,1,21.56,21.57Z" transform="translate(4.88 3.49)"/><path class="cls-4" d="M509.18,101.18h-20.3l-3.65,14.95H468.08l21.2-69.3h19.9l21.2,69.3H512.83Zm-17.7-11.9h15L499,58.63Z" transform="translate(4.88 3.49)"/><path class="cls-4" d="M536.18,116.13V63H550l1.1,6.15a24.67,24.67,0,0,1,7.5-6,20,20,0,0,1,9-1.95q6.79,0,10.7,4.15t3.9,11.7v39h-15.8V81.68a23.74,23.74,0,0,0-.45-5.18,4.55,4.55,0,0,0-1.58-2.75,5.09,5.09,0,0,0-3.07-.82,7.7,7.7,0,0,0-3.23.72A12.52,12.52,0,0,0,555,75.73,26,26,0,0,0,552,79v37.15Z" transform="translate(4.88 3.49)"/><path class="cls-4" d="M640.88,100.83a8.68,8.68,0,0,0,.82,4.35,5.11,5.11,0,0,0,2.68,2l-3.25,10.4a22.15,22.15,0,0,1-7.93-2.08,11.79,11.79,0,0,1-5.07-4.92,18.36,18.36,0,0,1-7.8,5.42,27.38,27.38,0,0,1-9.7,1.78q-8.21,0-13.08-4.68a15.9,15.9,0,0,1-4.87-12q0-8.66,6.77-13.35t19.08-4.7h7.15v-2c0-2.77-.9-4.82-2.68-6.15s-4.39-2-7.82-2a38.44,38.44,0,0,0-6.55.72,57.11,57.11,0,0,0-8,2.08L597,65.23a60.34,60.34,0,0,1,10.72-3,56.83,56.83,0,0,1,10-1q11.85,0,17.52,4.82T640.88,80Zm-24.8,5.7a11.19,11.19,0,0,0,5.35-1.53,10.12,10.12,0,0,0,4.25-4.32v-8.6h-3.9c-4.4,0-7.64.67-9.7,2A6.63,6.63,0,0,0,609,100a6.16,6.16,0,0,0,1.87,4.77A7.43,7.43,0,0,0,616.08,106.53Z" transform="translate(4.88 3.49)"/><path class="cls-4" d="M683.88,41.93v57.5c0,2.13.6,3.66,1.82,4.57a8.16,8.16,0,0,0,5,1.38,16,16,0,0,0,3.95-.48,27.91,27.91,0,0,0,3.55-1.12l3.8,10.55a33.72,33.72,0,0,1-6.5,2.45,33.36,33.36,0,0,1-8.85,1q-9.6,0-14.1-5.53t-4.5-14.82V52.73H652.42V41.93Z" transform="translate(4.88 3.49)"/><path class="cls-4" d="M766.37,63l-17.7,53.1A37.14,37.14,0,0,1,742.45,128a25.94,25.94,0,0,1-9.65,7.38,39.1,39.1,0,0,1-13.88,3l-1.8-11.15a34.73,34.73,0,0,0,8.48-2,13.61,13.61,0,0,0,5.2-3.53,20.16,20.16,0,0,0,3.42-5.62h-5.4L712,63h16.7L739,106l11.2-43Z" transform="translate(4.88 3.49)"/><path class="cls-4" d="M797.47,106.53a14,14,0,0,0,6.38-1.25,4,4,0,0,0,2.42-3.75,4.3,4.3,0,0,0-.95-2.85,9,9,0,0,0-3.65-2.2c-1.8-.7-4.46-1.53-8-2.5a40.28,40.28,0,0,1-8.57-3.3,15.51,15.51,0,0,1-5.8-5.15,13.93,13.93,0,0,1-2.08-7.85,14.19,14.19,0,0,1,2.65-8.45,17.52,17.52,0,0,1,7.8-5.83,33.26,33.26,0,0,1,12.6-2.12,38.08,38.08,0,0,1,12.38,1.82,34.67,34.67,0,0,1,9.12,4.63l-6.3,9.3a31.88,31.88,0,0,0-7.1-3.28,25,25,0,0,0-7.65-1.22,12.4,12.4,0,0,0-5.72,1,3.32,3.32,0,0,0-1.88,3.08,3.17,3.17,0,0,0,1,2.32,10.84,10.84,0,0,0,3.67,2c1.8.69,4.44,1.53,7.9,2.53a51.65,51.65,0,0,1,9,3.35,13.53,13.53,0,0,1,8,13.45,14.17,14.17,0,0,1-3.45,9.72,20.85,20.85,0,0,1-9.15,5.88,38.37,38.37,0,0,1-12.5,2,39,39,0,0,1-13.6-2.2,32.62,32.62,0,0,1-10.05-5.8l8-8.9a29.89,29.89,0,0,0,7,4A22.39,22.39,0,0,0,797.47,106.53Z" transform="translate(4.88 3.49)"/><path class="cls-4" d="M868.62,63v42.3h13.5v10.8H837.77v-10.8h15.05V73.83H838.27V63Zm-9.55-27.8a9.15,9.15,0,0,1,6.7,2.55,9.08,9.08,0,0,1,0,12.72,9.09,9.09,0,0,1-6.7,2.58,9.25,9.25,0,0,1-6.77-2.58,9,9,0,0,1,0-12.72A9.31,9.31,0,0,1,859.07,35.23Z" transform="translate(4.88 3.49)"/><path class="cls-4" d="M917.47,106.53a14,14,0,0,0,6.38-1.25,4,4,0,0,0,2.42-3.75,4.36,4.36,0,0,0-.95-2.85,9,9,0,0,0-3.65-2.2q-2.7-1-8-2.5a40.28,40.28,0,0,1-8.57-3.3,15.51,15.51,0,0,1-5.8-5.15,13.93,13.93,0,0,1-2.08-7.85,14.12,14.12,0,0,1,2.65-8.45,17.52,17.52,0,0,1,7.8-5.83,33.19,33.19,0,0,1,12.6-2.12,38.13,38.13,0,0,1,12.38,1.82,34.83,34.83,0,0,1,9.12,4.63l-6.3,9.3a32.09,32.09,0,0,0-7.1-3.28,25,25,0,0,0-7.65-1.22,12.37,12.37,0,0,0-5.72,1,3.32,3.32,0,0,0-1.88,3.08,3.17,3.17,0,0,0,1,2.32,10.84,10.84,0,0,0,3.67,2q2.7,1,7.9,2.53a52,52,0,0,1,9,3.35,13.53,13.53,0,0,1,8,13.45,14.17,14.17,0,0,1-3.45,9.72,20.85,20.85,0,0,1-9.15,5.88,38.42,38.42,0,0,1-12.5,2,39,39,0,0,1-13.6-2.2,32.62,32.62,0,0,1-10.05-5.8l8-8.9a29.89,29.89,0,0,0,7,4A22.39,22.39,0,0,0,917.47,106.53Z" transform="translate(4.88 3.49)"/><path class="cls-4" d="M1039.17,61.28a26.36,26.36,0,0,1,13.95,3.5,22.82,22.82,0,0,1,8.8,9.82,33.85,33.85,0,0,1,3,14.83,34.58,34.58,0,0,1-3.08,15.22,22.33,22.33,0,0,1-8.82,9.78,26.91,26.91,0,0,1-13.9,3.4,27.25,27.25,0,0,1-13.88-3.35,21.94,21.94,0,0,1-8.84-9.7,34.57,34.57,0,0,1-3.08-15.25,33.45,33.45,0,0,1,3.08-14.8,23.23,23.23,0,0,1,8.84-9.9A26,26,0,0,1,1039.17,61.28Zm0,11.65a7.75,7.75,0,0,0-7.18,4q-2.31,4-2.32,12.63,0,8.81,2.32,12.75a8.49,8.49,0,0,0,14.35,0q2.33-3.94,2.33-12.85,0-8.59-2.33-12.55A7.75,7.75,0,0,0,1039.17,72.93Z" transform="translate(4.88 3.49)"/><path class="cls-4" d="M1110,40.28a51.32,51.32,0,0,1,10.25.92,42.09,42.09,0,0,1,8,2.43l-4.35,10.3a29.14,29.14,0,0,0-5.65-1.53,36.25,36.25,0,0,0-5.75-.47c-3.13,0-5.38.57-6.73,1.7s-2,3-2,5.65v7.1H1121l-1.75,11h-15.55v38.8H1088V77.33h-11.15v-11H1088v-7.7a17.84,17.84,0,0,1,2.5-9.4,17.34,17.34,0,0,1,7.4-6.58A27.23,27.23,0,0,1,1110,40.28Z" transform="translate(4.88 3.49)"/><path class="cls-4" d="M520.88,200.83a8.68,8.68,0,0,0,.82,4.35,5.11,5.11,0,0,0,2.68,2l-3.25,10.4a22.15,22.15,0,0,1-7.93-2.08,11.79,11.79,0,0,1-5.07-4.92,18.36,18.36,0,0,1-7.8,5.42,27.38,27.38,0,0,1-9.7,1.78q-8.2,0-13.08-4.68a15.9,15.9,0,0,1-4.87-12q0-8.65,6.77-13.35t19.08-4.7h7.15v-2q0-4.16-2.68-6.15t-7.82-2a38.44,38.44,0,0,0-6.55.72,57.11,57.11,0,0,0-8,2.08L477,165.23a60.57,60.57,0,0,1,10.72-2.95,56.83,56.83,0,0,1,10-1q11.85,0,17.52,4.82T520.88,180Zm-24.8,5.7a11.19,11.19,0,0,0,5.35-1.53,10.18,10.18,0,0,0,4.25-4.32v-8.6h-3.9c-4.4,0-7.64.67-9.7,2A6.63,6.63,0,0,0,489,200a6.16,6.16,0,0,0,1.87,4.77A7.43,7.43,0,0,0,496.08,206.53Z" transform="translate(4.88 3.49)"/><path class="cls-4" d="M563.88,141.93v57.5c0,2.13.6,3.66,1.82,4.57a8.17,8.17,0,0,0,5,1.38,16.13,16.13,0,0,0,3.95-.48,28.43,28.43,0,0,0,3.55-1.12l3.8,10.55a34,34,0,0,1-6.5,2.45,33.46,33.46,0,0,1-8.85,1.05q-9.6,0-14.1-5.53t-4.5-14.82V152.73H532.43v-10.8Z" transform="translate(4.88 3.49)"/><path class="cls-4" d="M643.33,154.53l3.7,11.6a28.17,28.17,0,0,1-6.55,1.6,67.69,67.69,0,0,1-8.75.5,19.86,19.86,0,0,1,7.62,5.32,12.67,12.67,0,0,1,2.63,8.33,15.89,15.89,0,0,1-2.75,9.17,18.5,18.5,0,0,1-7.8,6.33,28.69,28.69,0,0,1-11.95,2.3c-1.14,0-2.2-.05-3.2-.15a28.32,28.32,0,0,1-2.95-.45,3,3,0,0,0-1.3,1.3,3.71,3.71,0,0,0-.45,1.75,3.09,3.09,0,0,0,1,2.25c.68.66,2.29,1,4.83,1h8.7a26.26,26.26,0,0,1,10.72,2,16.82,16.82,0,0,1,7,5.45,13.16,13.16,0,0,1,2.5,7.9q0,8.15-7.15,12.85T618,238.28q-10.2,0-15.78-2.08t-7.75-5.9a18,18,0,0,1-2.17-9.07h14a7,7,0,0,0,.92,3.77,5.71,5.71,0,0,0,3.55,2.18,31.81,31.81,0,0,0,7.63.7,28.39,28.39,0,0,0,7.7-.8,6.68,6.68,0,0,0,3.62-2.18,5.17,5.17,0,0,0,1-3.07,4.59,4.59,0,0,0-1.85-3.8q-1.86-1.46-5.85-1.45h-8.45q-8.61,0-12.5-3.18a9.36,9.36,0,0,1-3.9-7.42,10.79,10.79,0,0,1,1.57-5.6,13.26,13.26,0,0,1,4.43-4.45,18,18,0,0,1-7.3-6.38,16.83,16.83,0,0,1-2.2-8.82,17.44,17.44,0,0,1,3-10.33,19.62,19.62,0,0,1,8.42-6.67,30.33,30.33,0,0,1,12.28-2.35,46.63,46.63,0,0,0,10.35-.83,36.07,36.07,0,0,0,7.9-2.55Q640.13,156.38,643.33,154.53Zm-24.55,17.1a7.71,7.71,0,0,0-5.95,2.37,9.23,9.23,0,0,0-2.2,6.53q0,4.4,2.25,6.75a7.81,7.81,0,0,0,5.9,2.35,7.62,7.62,0,0,0,6-2.35c1.38-1.57,2.08-3.88,2.08-6.95s-.69-5.16-2-6.58S621.44,171.63,618.78,171.63Z" transform="translate(4.88 3.49)"/><path class="cls-4" d="M679.17,161.28a26.36,26.36,0,0,1,14,3.5,22.75,22.75,0,0,1,8.8,9.82A33.71,33.71,0,0,1,705,189.43a34.73,34.73,0,0,1-3.07,15.22,22.29,22.29,0,0,1-8.83,9.78,26.89,26.89,0,0,1-13.9,3.4,27.21,27.21,0,0,1-13.87-3.35,22,22,0,0,1-8.85-9.7,34.74,34.74,0,0,1-3.07-15.25,33.59,33.59,0,0,1,3.07-14.8,23.25,23.25,0,0,1,8.85-9.9A25.94,25.94,0,0,1,679.17,161.28Zm0,11.65a7.73,7.73,0,0,0-7.17,4q-2.32,4-2.33,12.63,0,8.81,2.33,12.75a8.49,8.49,0,0,0,14.35,0q2.32-3.94,2.32-12.85,0-8.6-2.32-12.55A7.76,7.76,0,0,0,679.17,172.93Z" transform="translate(4.88 3.49)"/><path class="cls-4" d="M716.67,216.13v-10.6h7v-32h-7V163h19.05l2.9,11.95q2.85-6.85,7.28-10.2a17.37,17.37,0,0,1,10.82-3.35,24.64,24.64,0,0,1,4.8.42,22.71,22.71,0,0,1,4,1.18l-4.8,13.05a21,21,0,0,0-2.9-.6,22.4,22.4,0,0,0-3.2-.2,12.09,12.09,0,0,0-9.12,4.25,27.91,27.91,0,0,0-6,10.8v15.2H750v10.6Zm36-30.9v-15.5L755,163h10.5l-3,22.2Z" transform="translate(4.88 3.49)"/><path class="cls-4" d="M808.62,163v42.3h13.5v10.8H777.77v-10.8h15.05v-31.5H778.27V163Zm-9.55-27.8a9.15,9.15,0,0,1,6.7,2.55,9.08,9.08,0,0,1,0,12.72,9.09,9.09,0,0,1-6.7,2.58,9.25,9.25,0,0,1-6.77-2.58,9,9,0,0,1,0-12.72A9.31,9.31,0,0,1,799.07,135.23Z" transform="translate(4.88 3.49)"/><path class="cls-4" d="M884,213a31.1,31.1,0,0,1-7.5,3.4,32.65,32.65,0,0,1-9.9,1.4q-10.4,0-15.45-5.33t-5-14.47v-24.1H834.92V163h11.15v-11.5l15.8-1.9V163H879l-1.55,10.9H861.87V198q0,3.94,1.8,5.65t5.75,1.7a18.35,18.35,0,0,0,5.13-.68,19.25,19.25,0,0,0,4.17-1.72Z" transform="translate(4.88 3.49)"/><path class="cls-4" d="M912,140.38v27.9a22.36,22.36,0,0,1,7.28-5.28,20.42,20.42,0,0,1,8.32-1.72q7.09,0,10.85,4.15t3.75,11.7v39h-15.8v-34.6c0-3.2-.36-5.44-1.07-6.7s-2.06-1.9-4-1.9a7.29,7.29,0,0,0-3.22.77,12.29,12.29,0,0,0-3.08,2.23,28.68,28.68,0,0,0-3,3.45v36.75h-15.8v-74.2Z" transform="translate(4.88 3.49)"/><path class="cls-4" d="M995.42,161.28a11.2,11.2,0,0,1,6.25,1.6,9.51,9.51,0,0,1,3.65,5,27.59,27.59,0,0,1,1.2,8.93v39.3H993v-37.5a10.47,10.47,0,0,0-.52-3.95,2.1,2.1,0,0,0-2.13-1.15,5.36,5.36,0,0,0-2.57.72,10.77,10.77,0,0,0-2.93,2.73v39.15h-11.1v-37.5a10.47,10.47,0,0,0-.52-3.95,2.1,2.1,0,0,0-2.13-1.15,5.36,5.36,0,0,0-2.57.72,10.77,10.77,0,0,0-2.93,2.73v39.15H951.82V163h11.6l1.05,5.15a21.92,21.92,0,0,1,5-5.15,10.41,10.41,0,0,1,6.05-1.75,8.62,8.62,0,0,1,5.13,1.52,8.41,8.41,0,0,1,3,4.78A21.93,21.93,0,0,1,989,163,12.12,12.12,0,0,1,995.42,161.28Z" transform="translate(4.88 3.49)"/><path class="cls-4" d="M1037.47,206.53a14,14,0,0,0,6.37-1.25,4,4,0,0,0,2.43-3.75,4.36,4.36,0,0,0-1-2.85,9,9,0,0,0-3.65-2.2q-2.7-1-8-2.5a40.59,40.59,0,0,1-8.58-3.3,15.75,15.75,0,0,1-5.8-5.15,15.31,15.31,0,0,1,.58-16.3,17.52,17.52,0,0,1,7.8-5.83,33.19,33.19,0,0,1,12.6-2.12,38,38,0,0,1,12.37,1.82,34.74,34.74,0,0,1,9.13,4.63l-6.3,9.3a32.09,32.09,0,0,0-7.1-3.28,25,25,0,0,0-7.65-1.22,12.42,12.42,0,0,0-5.73,1,3.31,3.31,0,0,0-1.87,3.08,3.2,3.2,0,0,0,1,2.32,10.91,10.91,0,0,0,3.68,2q2.7,1,7.9,2.53a51.84,51.84,0,0,1,9,3.35,14.74,14.74,0,0,1,5.93,5.07,15,15,0,0,1,2.1,8.38,14.17,14.17,0,0,1-3.45,9.72,20.85,20.85,0,0,1-9.15,5.88,38.42,38.42,0,0,1-12.5,2,39,39,0,0,1-13.6-2.2,32.62,32.62,0,0,1-10.05-5.8l8-8.9a30,30,0,0,0,7,4A22.48,22.48,0,0,0,1037.47,206.53Z" transform="translate(4.88 3.49)"/><path d="M1717,18.18a8.84,8.84,0,0,1,3,.45,5.91,5.91,0,0,1,2.13,1.32,6.64,6.64,0,0,1,1.39,2.09,11.59,11.59,0,0,1,.76,2.76,23.16,23.16,0,0,1,.23,3.34,34.87,34.87,0,0,1-.31,5.1,6.83,6.83,0,0,1-1.12,3.17,2.75,2.75,0,0,1-2.35,1.08,2.49,2.49,0,0,1-1.19-.27,2.39,2.39,0,0,1-.86-.72,3.49,3.49,0,0,1-.55-1,5.82,5.82,0,0,1-.28-1.28h-.09a4.18,4.18,0,0,1-.73,1.11,3.42,3.42,0,0,1-1.12.82,3.58,3.58,0,0,1-1.52.31,3.37,3.37,0,0,1-2.26-.72,4,4,0,0,1-1.23-2,9.23,9.23,0,0,1-.38-2.79,8,8,0,0,1,1.24-4.71,4.42,4.42,0,0,1,3.86-1.74,7.91,7.91,0,0,1,2,.26,8.29,8.29,0,0,1,2,.79v7.2a7.43,7.43,0,0,0,.1,1.41,1.55,1.55,0,0,0,.32.75.69.69,0,0,0,.54.23.62.62,0,0,0,.55-.36,3.52,3.52,0,0,0,.29-1.17c.06-.54.11-1.24.13-2.1s0-1.92,0-3.15a23.68,23.68,0,0,0-.21-3.34,7.67,7.67,0,0,0-.74-2.46A3.55,3.55,0,0,0,1719.2,21a4.9,4.9,0,0,0-2.37-.51,7,7,0,0,0-2.56.49,9.75,9.75,0,0,0-2.67,1.71L1710.1,21a11.85,11.85,0,0,1,3.31-2.11A9.66,9.66,0,0,1,1717,18.18Zm-1.48,8.67a1.27,1.27,0,0,0-1.29.89,10,10,0,0,0-.35,3.19,12.12,12.12,0,0,0,.11,1.78,1.91,1.91,0,0,0,.36,1,.85.85,0,0,0,.7.32,1.1,1.1,0,0,0,.81-.27,1.49,1.49,0,0,0,.4-.66,4.34,4.34,0,0,0,.17-.76V27.08a1.82,1.82,0,0,0-.43-.17A1.75,1.75,0,0,0,1715.54,26.85Z" transform="translate(4.88 3.49)"/><path d="M1735.88,22.49v9a9.09,9.09,0,0,1-1,4.55,7.29,7.29,0,0,1-3,2.83,19,19,0,0,1-5,1.64l-.6-2.9a14.06,14.06,0,0,0,3.24-1.1,4.67,4.67,0,0,0,2-1.79,5.91,5.91,0,0,0,.66-3V25.08h-4.58V22.49Zm-2.46-6.68a2.18,2.18,0,0,1,1.6.62,2,2,0,0,1,.63,1.52,2.05,2.05,0,0,1-.63,1.53,2.18,2.18,0,0,1-1.6.62,2.23,2.23,0,0,1-1.63-.62,2.05,2.05,0,0,1-.63-1.53,2,2,0,0,1,.63-1.52A2.23,2.23,0,0,1,1733.42,15.81Z" transform="translate(4.88 3.49)"/><path d="M1751.34,31.56a2.07,2.07,0,0,0,.2,1,1.2,1.2,0,0,0,.64.49l-.78,2.5a5.33,5.33,0,0,1-1.9-.5,2.89,2.89,0,0,1-1.22-1.18,4.33,4.33,0,0,1-1.87,1.3,6.45,6.45,0,0,1-2.33.43,4.36,4.36,0,0,1-3.13-1.12,3.83,3.83,0,0,1-1.17-2.89,3.67,3.67,0,0,1,1.62-3.2A7.91,7.91,0,0,1,1746,27.3h1.72v-.48a1.72,1.72,0,0,0-.65-1.48,3.07,3.07,0,0,0-1.87-.48,8.94,8.94,0,0,0-1.58.18,13.52,13.52,0,0,0-1.92.49l-.87-2.52a14.53,14.53,0,0,1,2.57-.7,13.7,13.7,0,0,1,2.4-.24,6.4,6.4,0,0,1,4.2,1.15,4.16,4.16,0,0,1,1.36,3.35Zm-5.95,1.37a2.77,2.77,0,0,0,1.29-.37,2.49,2.49,0,0,0,1-1V29.46h-.94a4.4,4.4,0,0,0-2.33.48,1.61,1.61,0,0,0-.74,1.43,1.47,1.47,0,0,0,.45,1.14A1.77,1.77,0,0,0,1745.39,32.93Z" transform="translate(4.88 3.49)"/><path d="M1767,22.49l-4.25,12.74h-4.46L1754,22.49h4.09l2.49,9.84,2.59-9.84Z" transform="translate(4.88 3.49)"/><path d="M1772.7,30a4,4,0,0,0,.55,1.69,2.42,2.42,0,0,0,1.06.93,3.42,3.42,0,0,0,1.45.3,5.15,5.15,0,0,0,1.7-.29,7.87,7.87,0,0,0,1.57-.77l1.52,2.07a7.43,7.43,0,0,1-2.18,1.26,8.22,8.22,0,0,1-2.91.49,7.13,7.13,0,0,1-3.66-.87,5.59,5.59,0,0,1-2.22-2.4,8.59,8.59,0,0,1,0-6.93,5.93,5.93,0,0,1,2.11-2.46,6,6,0,0,1,3.39-.91,6.17,6.17,0,0,1,3.16.78,5.23,5.23,0,0,1,2.07,2.24,7.65,7.65,0,0,1,.74,3.52c0,.21,0,.44,0,.69s0,.47,0,.66Zm2.36-5.35a2.06,2.06,0,0,0-1.65.73,4.11,4.11,0,0,0-.75,2.34h4.68a4.25,4.25,0,0,0-.54-2.23A1.91,1.91,0,0,0,1775.06,24.61Z" transform="translate(4.88 3.49)"/><path d="M1791.06,17l3.8.39V35.23h-3.36l-.2-1.4a4.66,4.66,0,0,1-1.4,1.27,4,4,0,0,1-2.12.54,4.07,4.07,0,0,1-2.63-.85,5.1,5.1,0,0,1-1.54-2.39,11.32,11.32,0,0,1-.51-3.58,9.29,9.29,0,0,1,.61-3.49,5.49,5.49,0,0,1,1.75-2.39,4.33,4.33,0,0,1,2.71-.87,4.17,4.17,0,0,1,1.59.3,4,4,0,0,1,1.3.87Zm-1.87,7.81a1.82,1.82,0,0,0-1.58.93,5.9,5.9,0,0,0-.6,3.08,9.16,9.16,0,0,0,.25,2.44,2.36,2.36,0,0,0,.7,1.22,1.59,1.59,0,0,0,1,.34,1.86,1.86,0,0,0,1.15-.39,3.83,3.83,0,0,0,.93-1.08v-5.5a3.34,3.34,0,0,0-.84-.77A1.93,1.93,0,0,0,1789.19,24.84Z" transform="translate(4.88 3.49)"/><path d="M1801.06,33a2.59,2.59,0,0,1,.36-1.34,2.81,2.81,0,0,1,1-1,2.62,2.62,0,0,1,1.35-.36,2.56,2.56,0,0,1,1.34.36,2.81,2.81,0,0,1,1,1,2.59,2.59,0,0,1,.36,1.34,2.55,2.55,0,0,1-.36,1.33,2.68,2.68,0,0,1-1,1,2.48,2.48,0,0,1-1.34.37,2.54,2.54,0,0,1-1.35-.37,2.68,2.68,0,0,1-1-1A2.55,2.55,0,0,1,1801.06,33Z" transform="translate(4.88 3.49)"/><path d="M1824.09,34.49a7.51,7.51,0,0,1-1.8.81,7.69,7.69,0,0,1-2.38.34,4.91,4.91,0,0,1-3.71-1.28,4.87,4.87,0,0,1-1.21-3.47V25.1h-2.67V22.49H1815V19.73l3.79-.46v3.22h4.11l-.37,2.61h-3.74v5.79a1.78,1.78,0,0,0,.44,1.35,1.94,1.94,0,0,0,1.38.41,4.41,4.41,0,0,0,1.23-.16,4.77,4.77,0,0,0,1-.42Z" transform="translate(4.88 3.49)"/><path d="M1830.3,30a4,4,0,0,0,.55,1.69,2.37,2.37,0,0,0,1.06.93,3.42,3.42,0,0,0,1.45.3,5,5,0,0,0,1.69-.29,7.69,7.69,0,0,0,1.58-.77l1.52,2.07a7.43,7.43,0,0,1-2.18,1.26,8.22,8.22,0,0,1-2.91.49,7.13,7.13,0,0,1-3.66-.87,5.59,5.59,0,0,1-2.22-2.4,8.59,8.59,0,0,1,0-6.93,6,6,0,0,1,2.1-2.46,6.05,6.05,0,0,1,3.4-.91,6.2,6.2,0,0,1,3.16.78,5.23,5.23,0,0,1,2.07,2.24,7.78,7.78,0,0,1,.74,3.52c0,.21,0,.44,0,.69s0,.47,0,.66Zm2.36-5.35a2.05,2.05,0,0,0-1.65.73,4.11,4.11,0,0,0-.76,2.34h4.68a4.07,4.07,0,0,0-.54-2.23A1.89,1.89,0,0,0,1832.66,24.61Z" transform="translate(4.88 3.49)"/><path d="M1848.17,32.65a3.49,3.49,0,0,0,1.47-.31,7.6,7.6,0,0,0,1.37-.78l1.7,2.4a7.29,7.29,0,0,1-2,1.2,7.2,7.2,0,0,1-2.69.48,6.91,6.91,0,0,1-3.53-.85,5.71,5.71,0,0,1-2.27-2.35,7.38,7.38,0,0,1-.79-3.5,7.51,7.51,0,0,1,.81-3.54,6.1,6.1,0,0,1,2.3-2.45,6.85,6.85,0,0,1,3.55-.88,7.6,7.6,0,0,1,2.58.4,6.81,6.81,0,0,1,2.09,1.19l-1.65,2.28a5.76,5.76,0,0,0-1.37-.71,4.72,4.72,0,0,0-1.5-.25,2.61,2.61,0,0,0-2.07.91,4.68,4.68,0,0,0-.78,3.05,5.39,5.39,0,0,0,.37,2.22,2.4,2.4,0,0,0,1,1.15A3,3,0,0,0,1848.17,32.65Z" transform="translate(4.88 3.49)"/><path d="M1859.61,17.05v6.7a5.33,5.33,0,0,1,1.74-1.27,4.87,4.87,0,0,1,2-.41,3.36,3.36,0,0,1,2.61,1,4.1,4.1,0,0,1,.89,2.81v9.36h-3.79v-8.3a3.42,3.42,0,0,0-.26-1.61,1,1,0,0,0-1-.46,1.72,1.72,0,0,0-.78.19,2.87,2.87,0,0,0-.73.53,6.82,6.82,0,0,0-.72.83v8.82h-3.8V17.42Z" transform="translate(4.88 3.49)"/></g></svg>